<?xml version="1.0" standalone="no"?>
<!DOCTYPE svg PUBLIC "-//W3C//DTD SVG 1.1//EN"
 "http://www.w3.org/Graphics/SVG/1.1/DTD/svg11.dtd">
<!-- Created with svg_stack (http://github.com/astraw/svg_stack) -->
<svg xmlns:sodipodi="http://sodipodi.sourceforge.net/DTD/sodipodi-0.dtd" xmlns="http://www.w3.org/2000/svg" version="1.1" width="200.0" height="200.0">
  <defs/>
  <g id="id0:id0" transform="matrix(1.25,0,0,1.25,0.0,0.0)"><g transform="translate(0.000000,160.000000) scale(0.040000,-0.040000)" fill="#92acb4" stroke="none">
</g>
</g>
  <g id="id1:id1" transform="matrix(1.25,0,0,1.25,0.0,0.0)"><g transform="translate(0.000000,160.000000) scale(0.040000,-0.040000)" fill="#76b8de" stroke="none">
</g>
</g>
  <g id="id2:id2" transform="matrix(1.25,0,0,1.25,0.0,0.0)"><g transform="translate(0.000000,160.000000) scale(0.040000,-0.040000)" fill="#71b8df" stroke="none">
</g>
</g>
  <g id="id3:id3" transform="matrix(1.25,0,0,1.25,0.0,0.0)"><g transform="translate(0.000000,160.000000) scale(0.040000,-0.040000)" fill="#f0a356" stroke="none">
</g>
</g>
  <g id="id4:id4" transform="matrix(1.25,0,0,1.25,0.0,0.0)"><g transform="translate(0.000000,160.000000) scale(0.040000,-0.040000)" fill="#ed9b49" stroke="none">
</g>
</g>
  <g id="id5:id5" transform="matrix(1.25,0,0,1.25,0.0,0.0)"><g transform="translate(0.000000,160.000000) scale(0.040000,-0.040000)" fill="#91c7e7" stroke="none">
</g>
</g>
  <g id="id6:id6" transform="matrix(1.25,0,0,1.25,0.0,0.0)"><g transform="translate(0.000000,160.000000) scale(0.040000,-0.040000)" fill="#88c3e5" stroke="none">
</g>
</g>
  <g id="id7:id7" transform="matrix(1.25,0,0,1.25,0.0,0.0)"><g transform="translate(0.000000,160.000000) scale(0.040000,-0.040000)" fill="#61acd8" stroke="none">
</g>
</g>
  <g id="id8:id8" transform="matrix(1.25,0,0,1.25,0.0,0.0)"><g transform="translate(0.000000,160.000000) scale(0.040000,-0.040000)" fill="#5da7d2" stroke="none">
</g>
</g>
  <g id="id9:id9" transform="matrix(1.25,0,0,1.25,0.0,0.0)"><g transform="translate(0.000000,160.000000) scale(0.040000,-0.040000)" fill="#5eabd6" stroke="none">
</g>
</g>
  <g id="id10:id10" transform="matrix(1.25,0,0,1.25,0.0,0.0)"><g transform="translate(0.000000,160.000000) scale(0.040000,-0.040000)" fill="#45a6dc" stroke="none">
<path d="M597 3113 c-52 -27 -68 -68 -65 -160 3 -92 20 -126 79 -155 31 -16 71 -18 409 -18 206 0 393 5 415 10 25 6 52 22 73 44 30 34 32 40 32 110 0 94 -17 135 -68 164 -39 22 -43 22 -443 21 -336 -1 -409 -4 -432 -16z"/>
<path d="M1819 3105 c-45 -29 -59 -67 -59 -160 0 -71 1 -74 40 -116 l40 -44 418 0 c460 0 455 -1 492 61 29 46 29 184 -1 225 -42 59 -40 59 -486 58 l-408 0 -36 -24z"/>
<path d="M610 2467 c-56 -28 -79 -70 -80 -151 0 -72 27 -134 69 -159 26 -15 69 -17 439 -17 369 0 413 2 440 17 41 23 65 83 66 163 1 57 -2 70 -27 103 -16 20 -35 37 -42 37 -7 0 -15 6 -17 13 -4 9 -95 12 -404 14 -394 2 -400 2 -444 -20z"/>
<path d="M2528 2470 c-83 -37 -115 -122 -87 -225 12 -42 44 -85 65 -85 7 0 14 -5 16 -10 2 -7 140 -11 421 -11 l418 0 31 27 c47 38 59 69 60 152 1 85 -14 112 -78 149 -39 23 -43 23 -424 22 -339 -1 -389 -4 -422 -19z"/>
<path d="M1230 1872 c-56 -28 -80 -73 -80 -151 0 -50 6 -76 23 -106 43 -76 5 -73 789 -66 l698 6 31 31 c37 37 53 99 44 169 -9 64 -42 108 -93 123 -29 9 -220 12 -708 12 -609 -1 -672 -2 -704 -18z"/>
<path d="M612 1242 c-61 -23 -85 -77 -80 -175 4 -85 29 -128 86 -146 27 -9 148 -11 441 -9 l403 3 39 44 c39 43 39 44 39 127 0 46 -4 84 -9 84 -5 0 -11 10 -15 23 -3 13 -18 29 -33 36 -16 7 -36 17 -45 22 -10 5 -190 9 -400 8 -330 0 -389 -3 -426 -17z"/>
<path d="M2538 1244 c-63 -19 -97 -64 -105 -137 -7 -69 8 -114 53 -158 l35 -34 402 -3 c271 -2 414 0 439 8 23 6 48 24 64 45 23 31 26 44 26 114 0 99 -16 131 -76 160 -44 20 -58 21 -418 20 -296 0 -383 -3 -420 -15z"/>
</g>
</g>
  <g id="id11:id11" transform="matrix(1.25,0,0,1.25,0.0,0.0)"><g transform="translate(0.000000,160.000000) scale(0.040000,-0.040000)" fill="#f1ac67" stroke="none">
</g>
</g>
  <g id="id12:id12" transform="matrix(1.25,0,0,1.25,0.0,0.0)"><g transform="translate(0.000000,160.000000) scale(0.040000,-0.040000)" fill="#f1a962" stroke="none">
</g>
</g>
  <g id="id13:id13" transform="matrix(1.25,0,0,1.25,0.0,0.0)"><g transform="translate(0.000000,160.000000) scale(0.040000,-0.040000)" fill="#e7943f" stroke="none">
</g>
</g>
  <g id="id14:id14" transform="matrix(1.25,0,0,1.25,0.0,0.0)"><g transform="translate(0.000000,160.000000) scale(0.040000,-0.040000)" fill="#eb9137" stroke="none">
</g>
</g>
  <g id="id15:id15" transform="matrix(1.25,0,0,1.25,0.0,0.0)"><g transform="translate(0.000000,160.000000) scale(0.040000,-0.040000)" fill="#f5891d" stroke="none">
<path d="M3055 3116 c-16 -7 -41 -25 -54 -40 -23 -24 -25 -34 -24 -117 l1 -91 38 -39 38 -39 149 0 c134 0 153 2 184 21 48 30 63 66 63 149 0 89 -16 122 -73 149 -37 18 -61 21 -168 21 -81 -1 -134 -5 -154 -14z"/>
<path d="M1887 2482 c-30 -8 -87 -36 -87 -43 0 -4 -7 -15 -16 -24 -11 -11 -18 -40 -22 -85 -6 -85 21 -148 74 -174 50 -23 279 -23 329 1 54 26 79 86 73 174 -5 59 -10 75 -33 99 -15 16 -39 33 -54 39 -24 9 -236 20 -264 13z"/>
<path d="M611 1872 c-52 -26 -72 -61 -78 -135 -5 -54 -2 -73 17 -111 33 -70 61 -78 242 -74 l148 3 32 33 c31 30 33 38 36 111 5 101 -17 150 -78 175 -58 23 -271 22 -319 -2z"/>
<path d="M3047 1871 c-59 -28 -66 -44 -66 -151 -1 -106 8 -125 68 -154 49 -23 284 -23 330 0 51 26 71 67 71 151 0 139 -48 173 -242 172 -95 0 -132 -5 -161 -18z"/>
<path d="M1885 1249 c-22 -5 -51 -15 -64 -22 -55 -28 -80 -165 -43 -236 33 -65 58 -76 199 -80 151 -4 192 6 229 55 30 38 42 113 30 178 -8 42 -57 91 -99 101 -54 11 -210 14 -252 4z"/>
</g>
</g>
</svg>
